<svg id="Capa_1" enable-background="new 0 0 512 512" height="512" viewBox="0 0 512 512" width="512" xmlns="http://www.w3.org/2000/svg"><g><path d="m304.905 363.851c34.355-14.398 65.195-31.031 102.54-68.377 86.175-86.175 74.321-206.337 69.176-238.882l30.982-30.982c5.863-5.863 5.863-15.351 0-21.213-5.863-5.863-15.351-5.863-21.213 0l-30.982 30.982c-32.545-5.145-152.707-16.999-238.882 69.176-37.345 37.345-53.976 68.179-68.375 102.535-37.807-9.444-78.253 1.666-105.816 29.229l-37.941 37.941c-4.92 4.92-5.811 12.585-2.154 18.499 3.729 5.925 10.917 8.535 17.515 6.329 3.985-.264 50.195-22.912 90.705 17.598l.271.271c-15.621 2.161-30.713 8.958-42.697 20.943-25.45 25.45-43.265 117.077-46.58 135.182-.88 4.858.673 9.83 4.154 13.31s8.452 5.034 13.31 4.154c18.106-3.315 109.733-21.13 135.182-46.58 11.984-11.984 18.782-27.076 20.943-42.697l.271.271c40.535 40.535 17.864 86.698 17.598 90.705-2.143 6.403.208 13.666 6.329 17.515 5.914 3.656 13.579 2.766 18.499-2.154l37.941-37.941c27.558-27.558 38.665-68.013 29.224-105.814z" fill="#f3f5f9"/><path d="m174.1 443.966c11.984-11.984 18.782-27.076 20.943-42.697l.271.271c40.535 40.535 17.864 86.698 17.598 90.705-2.143 6.403.208 13.666 6.329 17.515 5.914 3.656 13.579 2.766 18.499-2.154l37.941-37.941c27.557-27.557 38.665-68.012 29.224-105.814 34.355-14.398 65.195-31.031 102.54-68.377 86.175-86.175 74.321-206.337 69.176-238.882l30.982-30.982c5.863-5.863 5.863-15.351 0-21.213l-481.995 481.995c3.48 3.48 8.452 5.034 13.31 4.154 18.105-3.315 109.732-21.13 135.182-46.58z" fill="#e1e6f0"/><path d="m164.529 246.737c-7.041-4.501-14.559-8.239-22.891-10.407-27.853-7.24-57.767.88-78.089 21.203l-5.179 5.179c27.148 1.398 53.251 12.709 73.304 32.762l8.815 8.815 31.507-3.429z" fill="#4d3535"/><path d="m275.671 370.383c-2.166-8.34-5.859-15.893-10.358-22.933l-52.477-8.153-5.124 32.215 8.815 8.815c20.053 20.053 31.374 46.166 32.762 73.304l5.179-5.179c20.312-20.313 28.433-50.227 21.203-78.069z" fill="#331e1e"/><path d="m447.406 64.594c-19.584-2.631-65.58-6.203-114.957 7.392l.75 43.176 31.82 31.82 31.82 31.82 43.176.75c13.595-49.378 10.022-95.374 7.391-114.958z" fill="#4d3535"/><path d="m440.015 179.551c13.595-49.377 10.023-95.373 7.392-114.957l-82.388 82.388 31.82 31.82z" fill="#331e1e"/><path d="m440.015 179.551-53.783-53.783-53.783-53.783c-32.261 8.881-65.951 25.024-94.71 53.783-41.082 41.082-53.74 71.297-73.21 120.969-6.663 16.987-14.079 35.828-24.041 57.552l33.612 33.611 33.612 33.612c21.744-9.972 40.605-17.395 57.601-24.062 49.743-19.588 79.478-31.749 120.919-73.19 28.759-28.759 44.902-62.448 53.783-94.709z" fill="#ff7f40"/><path d="m265.313 347.45c49.743-19.588 79.478-31.749 120.919-73.19 28.759-28.759 44.902-62.448 53.783-94.71l-53.783-53.783-212.132 212.133 33.612 33.612c21.744-9.972 40.604-17.395 57.601-24.062z" fill="#f25a3c"/><path d="m152.887 359.113c-17.546-17.546-46.093-17.546-63.64 0-11.601 11.601-25.274 58.378-33.86 97.5 39.133-8.597 85.92-22.28 97.5-33.86 17.546-17.547 17.546-46.093 0-63.64z" fill="#ffbe40"/><path d="m152.887 359.113-97.5 97.5c39.133-8.597 85.92-22.28 97.5-33.86 17.546-17.547 17.546-46.093 0-63.64z" fill="#ff9f40"/><circle cx="290.773" cy="221.227" fill="#4d3535" r="75"/><path d="m343.806 274.26c29.241-29.241 29.241-76.825 0-106.066l-106.066 106.066c29.24 29.241 76.825 29.241 106.066 0z" fill="#331e1e"/><circle cx="290.773" cy="221.227" fill="#6cf" r="45"/><path d="m322.592 253.047c17.546-17.546 17.546-46.093 0-63.64l-63.64 63.64c17.547 17.547 46.094 17.547 63.64 0z" fill="#59abff"/></g></svg>